<?xml version="1.0" encoding="utf-8"?>
<!-- Generator: Adobe Illustrator 19.0.0, SVG Export Plug-In . SVG Version: 6.00 Build 0)  -->
<svg version="1.1" id="Layer_1" xmlns="http://www.w3.org/2000/svg" xmlns:xlink="http://www.w3.org/1999/xlink" x="0px" y="0px"
	 viewBox="0 0 512 512" style="enable-background:new 0 0 512 512;" xml:space="preserve">
<style type="text/css">
	.st0{fill:#FFFFFF00;}
</style>
<g>
	<path class="st0" d="M1,513C1,342.4,1,171.8,1,1.1c170.5,0,341.1,0,511.8,0c0,170.6,0,341.2,0,511.9C342.3,513,171.7,513,1,513z
		 M110.8,169.1c0.6,0,1.2-0.1,1.8-0.1c0.8-3.8,2.1-7.6,2.3-11.5c0.4-7.5,0.1-15,0.1-22.5c0-14.9,6.5-23.6,20.7-28
		c20-6.1,40.1-12.1,60.2-18.2c3.3-1,6.6-2.1,9.9-3.1c1.3,5.6,0.8,6.4-3.9,7.2c-6.4,1-12.2,2.8-15.8,9.7c16.6-1.5,20.7,8,19.2,23.4
		c5.5-4.9,9.6-8.4,13.6-12.1c6.2-5.7,13.3-9.7,21.9-9.3c14.5,0.7,29,1.1,43.3,3.3c27.2,4.2,54.2,9.1,81.8,7.3
		c12.8-0.8,25.6-1.2,38.4-2.2c8.1-0.6,9.5-4,5.1-10.9c-5.1-7.9-12.7-13.1-20.8-17.4c-26.8-13.9-55.2-17.4-84.9-13.2
		c-23.6,3.3-45.1,12.3-65.9,23.5c-2.4,1.3-5.7,2.2-8.4,1.8c-6.4-0.9-12.6-2.7-19.2-4.2c4.6-6.9,9.6-12.5,17.8-15.3
		c10.6-3.6,20.6-8.7,28.4-17.1c4.2-4.5,3.9-6-1.6-8.8c-13-6.6-26.7-7.4-40.9-6c-7.5,0.8-15.2,0.3-22.7,0.6
		c-4.8,0.2-9.6,0.3-14.4,1.1c-4.8,0.8-5,2.2-2,5.8c0.9,1.1,1.7,2.2,2.8,3.6c-2,1.1-3.5,1.9-4.9,2.7c-19.2,11.1-36.7,24-50.4,41.8
		c-4.3,5.5-9.9,10.1-15.3,14.7c-8.2,6.9-16.8,13.4-25.8,20.6c1.5,0.4,1.9,0.6,2.2,0.5c1.5-0.3,2.9-0.7,4.3-1.1
		c8.9-2.4,15.1,0.5,18.4,9.1c1.5,3.8,2.1,8,2.9,12.1C109.8,160.9,110.2,165,110.8,169.1z M91.8,377.7c1.5-5.6-0.6-9-3.6-12.4
		c-3-3.5-6.6-7-8.1-11.2c-4-11.4-8-23-10.2-34.8c-3-16.5-7.6-32.3-15.3-47.2c-1.8-3.5-3.4-9.4-8-8c-3.1,0.9-6.1,6-7.1,9.8
		c-3.3,11.8-3.7,23.9-1,36c4.3,19.1,16.2,32.7,31.7,43.8c6.1,4.4,6.7,6.2,4.9,13.5c-0.9,3.8-1.7,7.6-2.8,12.5
		C79.5,377.1,85,371,91.8,377.7z M395.7,128.2c0,0.5,0,1,0,1.5c4,0.8,7.9,1.9,11.9,2.3c9.2,1,17.6,3.2,23.7,10.9
		c6.7,8.5,13.5,16.8,20.5,25.1c2.6,3.1,5.6,5.9,0,9.8c7.4-0.1,11.9,3.4,16.6,7c3.8,2.9,8.5,5,13,6.9c2.8,1.2,4.6-0.4,4.8-3.7
		c0.3-7.5-1.3-14.4-4.7-21.1c-2.7-5.3-4.6-11-7.1-16.4c-1.1-2.5-2.8-4.7-4.6-7.5c-1.7,2.4-2.6,3.7-3.6,5.3c-1.6-1.1-2.9-2.2-4.4-2.8
		c-8.6-3.8-17-8.4-25.9-11c-7.4-2.2-12-5.8-14-13.1c-0.7-2.4-1.9-4.7-2.9-7C416.1,128.1,404.9,126.4,395.7,128.2z M43.2,247.2
		c13.5-3.8,17,7.2,23.6,13.4c-0.4-3.5-0.9-6.8-2.1-9.8c-4.1-10-3.7-19.3,3-28.3c2.5-3.4,4.3-7.5,5.8-11.5c2.5-6.5,4.6-13.1,6.9-19.8
		c1.5,0.5,2.8,1,3,1c0-5.6,0-11.1,0-16.6c0-4,0.1-7.9-0.1-11.8c-0.3-4.5-3.1-4.9-6.7-3.4c-6.8,2.9-11.8,7.8-15.6,14.1
		c-2.4,4.1-5.7,7.7-8.4,11.6c-1.5,2.2-2.7,4.7-4.5,7.9c5.7-0.6,6.4,1.8,6.6,5.8c0.4,9.8,1.6,19.5,1.9,29.3c0.1,2.6-1.2,5.8-2.9,7.9
		C51,240.4,47.4,243.2,43.2,247.2z M420.1,158.3C420.1,157.6,420,158,420.1,158.3c0.9,1.6,1.7,3.2,2.6,4.8
		c6.7,11.5,11.3,23.7,13.2,36.9c1.5,10.9,2.7,21.8,4.1,32.7c1.2,8.7,2.5,17.4,4,26.1c0.3,1.5,1.6,2.9,2.5,4.3c1-1.4,2.2-2.7,3-4.2
		c0.6-1.1,1-2.5,1.3-3.8c6.5-26.5,3.1-51.2-13.5-73.4c-4.5-6.1-7.2-12.6-6.4-20.4c0.2-2.5-0.6-5-0.8-7
		C426.5,155.7,423.5,156.9,420.1,158.3z M268.4,67.2c0.5-0.1,2-0.1,3.2-0.8c10.3-6.1,21.5-4.4,32.6-3.7c19.1,1.2,38.2,2.2,57.3,3.1
		c1.5,0.1,3-0.8,4.4-1.3c-0.9-1.5-1.4-3.5-2.7-4.3c-4-2.4-8-4.9-12.4-6.3c-20.3-6.9-40.4-4.7-60.1,2.6c-5.7,2.1-11.1,3-17,1.3
		c-2.9-0.8-6.2-0.4-8.7-0.5C266.4,60.9,267.3,63.8,268.4,67.2z M56.5,161.9c1.8-3.8,2.6-6,3.8-8.1c3.2-5.7,5.7-12.1,10-17
		c14.9-16.8,30.5-33,45.7-49.5c1.3-1.4,1.9-3.5,2.7-5.2c-2.2-0.2-4.8-1.3-6.4-0.5c-7.2,3.6-14.8,6.9-21.1,11.9
		c-13,10.3-20.7,24.6-26,40.1c-2.1,6.2-5.3,11.3-11,14.9c-2.5,1.5-4.2,4.1-6.3,6.3C52.7,154.5,56,155.1,56.5,161.9z M101.3,231.5
		c-6.7,2.4-10.8,6.5-13.4,11.8c-3.6,7.4-6.5,15.3-9.6,23c-0.3,0.7,0.1,1.8,0.4,2.6c0.6,1.7,1.7,3.2,2,4.9c1.5,9.2,3.1,18.3,4.2,27.5
		c0.7,5.5,0.8,11.2,0.7,16.8c0,2.5-1.2,5-2.1,8.8c9.3-6.2,8.6,4.5,14.2,7.1c-1.6-4.5-2.5-7.8-3.9-10.9c-3.3-7.5-4.6-15.2-4-23.4
		c0.5-6.8,0.9-13.6,1.7-20.4c0.8-6.6,2.8-13.1,3.9-19.5c1.3-7.3,2.7-14.6,4.8-21.7C100.9,236.2,100.9,234.2,101.3,231.5z
		 M175.9,445.4c-7.4,4.7-8.8,4.7-16.4-1.7c-3.9-3.3-7.6-7-11.1-10.8c-7.3-7.9-15.5-14.6-25.2-19.3c-1.4-0.7-3.5-0.5-5,0
		c-0.5,0.2-0.7,2.7-0.4,4c4.8,18.7,23.3,33.5,42.5,34.7c4.2,0.2,8.4,1.6,12.4,2.9c3.9,1.3,7.3,1.7,9.8-0.8
		C180.2,451.2,178.1,448.3,175.9,445.4z M468.9,217.5c0.2,1.3,0.1,2.7,0.6,3.7c6.9,13.7,9.4,28.6,11.5,43.6c0.7,5.4,2.4,10.7,4,15.9
		c0.4,1.3,2,3.1,3.1,3c1.2,0,2.9-1.6,3.4-2.9c5.9-15.6,5.8-31.5-8.4-44.4c-5.6-5-8.5-10.1-4-17.3c0.1-0.2-0.2-0.6-0.2-0.7
		C475.7,218.2,472.7,217.9,468.9,217.5z M446.8,98.6c-3.1-1.1-4.8-1.6-6.4-2.4c-5.1-2.3-10-6-15.3-6.7c-7.6-1-14.5-2-18.6-10.4
		c-0.4,7.8-6.4,6-10.5,7.8c2.2,1.1,4.3,1.6,6.4,2.1c5.3,1.3,11.3,1.4,15.7,4.1c6.3,4,11.6,9.8,17.1,15.1c1.4,1.3,1.7,3.8,2.8,6.7
		c6.8,1.6,9.6,12.9,20.8,11.4C454.4,116.3,450.4,106.9,446.8,98.6z M130.2,164.2c0.8-10.9,9.6-14.1,17-18.7c2-1.2,4.2-2.1,6-3.5
		c5.1-3.9,10.4-7.7,15-12.1c2.4-2.3,3.6-5.8,5.3-8.8c-3.8-0.1-7.8-1.1-11.4-0.2c-13.4,3.4-22,12.4-27.3,24.8
		c-1.9,4.5-4.3,8.1-9.5,9.1c-1.4,0.3-2.7,1.8-3.8,2.6C124.5,159.7,126.9,161.5,130.2,164.2z M350.3,131.6c8.5-2.9,15.2,1.2,21.8,5.4
		c2,1.2,3.8,2.8,5.8,3.8c7.6,3.6,15.2,7.2,23,10.4c2.1,0.9,4.9,0.1,7.4,0.1c-0.8-2.5-1.1-5.3-2.4-7.5c-1-2-2.9-3.6-4.6-5.2
		c-9.2-8.6-20.5-11.3-32.7-10.6c-4.7,0.3-8.8,0-11.9-4.3c-0.9-1.2-2.8-1.7-4.1-2.4C351.9,124.7,351.3,127.7,350.3,131.6z
		 M461.4,312.1c0.6,2.2,1.3,4.3,1.6,6.6c0.5,4.1,1.7,8.4,0.8,12.2c-1.6,7.1-3.8,14.2-7,20.7c-3.4,6.8-2.6,13.7-2.8,20.7
		c0,1.2,1.2,2.5,1.9,3.7c1.2-0.7,2.9-1.1,3.6-2.1c4.3-6.2,8.4-12.6,12.3-18.4c-4.4-6.2-0.9-12.8-2.8-18.6c-2.1-6.6-0.9-12.6,4.7-19
		C466.2,320,465,314.9,461.4,312.1z M70.6,393.2c-6.7-1.7-10.5-10.4-16-17.5c-5.1-6.6-11.3-11.3-19.1-13.8c-1.7-0.6-3.7-0.2-5.6-0.2
		c0,2-0.5,4.3,0.2,6c4.5,11.3,13.1,18.2,24.6,21.5c5.4,1.5,10.2,3.1,10.2,10c0,0.8,0.9,1.6,1.4,2.4c-0.4-0.5-0.7-0.9-1.1-1.4
		C67.2,397.6,69.2,395.1,70.6,393.2z M30.9,245.8c-0.1-0.5,0-1.4-0.4-2c-4.6-6.8-3.5-12.9,0.4-19.9c4.6-8.3,11.2-16.4,9.2-27.1
		c-0.3-1.5-1-2.9-1.5-4.4c-1.3,0.5-3.1,0.7-3.9,1.6c-4.4,4.7-8.6,9.6-11.4,12.8c0,7.4-0.8,13,0.2,18.4c1.1,6.4-0.6,11.6-3.5,15.4
		C23.7,242.4,27.2,244.1,30.9,245.8z M209.9,469.6c-5.8,2.8-11.2,1.1-16.9-0.4c-7.3-1.9-14.9-2.9-22.4-4c-1.2-0.2-2.6,0.9-3.9,1.4
		c0.6,1.4,0.9,3.2,2,4.1c6.8,5.9,14.8,8.1,23.7,6.3c6.2-1.2,12.2-4.4,18.7,0.3C210.6,474,210.3,471.9,209.9,469.6z M120.6,441.4
		c-7.7,5-12-0.3-16.3-5.4c-1.4-1.6-2.7-3.5-4.4-4.7c-2.5-1.7-5.3-3.5-8.2-4.2c-5.1-1.2-7,1.3-5.1,6.1c1.7,4.1,4,7.9,5.1,9.9
		c8.8,3.6,17.5,0.4,23.9,6.7C117.2,447,118.9,444.2,120.6,441.4z M233.8,479c3.5,0,5.1-1.8,5.1-4.9c0-3.2-2-4.9-5-4.8
		c-3.1,0-4.9,1.6-4.9,4.9C229,477.5,230.7,479,233.8,479z M103,210.8c1.3-1.9,3.4-3.7,3.8-5.7c0.5-3.1-1.7-4.9-4.8-5
		c-3.1-0.1-5,1.6-5,4.9C96.9,208.3,98.6,209.8,103,210.8z M468,275.2c-0.1-2.7-1.7-4.4-4.9-4.4c-3.2,0-5,1.6-5.1,4.8
		c-0.1,3.3,1.9,4.9,5,4.9C466.1,280.6,468,279.1,468,275.2z M483.9,308.3c0-0.6,0-1.3,0-1.9c-1.5-0.9-3-2.5-4.4-2.4
		c-1.2,0.1-3.4,2.3-3.2,3.1c0.3,1.5,2,3.4,3.4,3.6C480.9,310.9,482.5,309.2,483.9,308.3z M35,335.3c0-0.6,0-1.3,0-1.9
		c-1.4-0.9-2.9-2.5-4.3-2.5c-1.2,0.1-3.5,2.2-3.3,3.1c0.3,1.5,2,3.4,3.3,3.7C31.9,337.9,33.5,336.2,35,335.3z"/>
	<path d="M110.8,169.1c-0.6-4.1-1-8.2-1.8-12.2c-0.8-4.1-1.4-8.2-2.9-12.1c-3.3-8.5-9.5-11.4-18.4-9.1c-1.4,0.4-2.9,0.8-4.3,1.1
		c-0.3,0.1-0.6-0.1-2.2-0.5c9-7.2,17.6-13.7,25.8-20.6c5.4-4.6,11-9.1,15.3-14.7c13.7-17.8,31.2-30.8,50.4-41.8
		c1.4-0.8,2.9-1.6,4.9-2.7c-1.1-1.4-1.9-2.5-2.8-3.6c-3-3.6-2.8-5,2-5.8c4.7-0.8,9.6-0.9,14.4-1.1c7.6-0.3,15.2,0.1,22.7-0.6
		c14.2-1.4,27.9-0.6,40.9,6c5.5,2.8,5.8,4.3,1.6,8.8c-7.8,8.4-17.8,13.4-28.4,17.1c-8.2,2.8-13.2,8.5-17.8,15.3
		c6.6,1.5,12.8,3.3,19.2,4.2c2.7,0.4,5.9-0.5,8.4-1.8c20.8-11.2,42.3-20.2,65.9-23.5c29.7-4.2,58.1-0.7,84.9,13.2
		c8.2,4.2,15.7,9.4,20.8,17.4c4.4,6.9,3,10.2-5.1,10.9c-12.8,1-25.6,1.4-38.4,2.2c-27.7,1.8-54.7-3.1-81.8-7.3
		c-14.3-2.2-28.8-2.6-43.3-3.3c-8.6-0.4-15.7,3.6-21.9,9.3c-4,3.7-8.1,7.2-13.6,12.1c1.5-15.4-2.5-24.9-19.2-23.4
		c3.6-6.9,9.4-8.7,15.8-9.7c4.8-0.7,5.2-1.6,3.9-7.2c-3.3,1-6.6,2.1-9.9,3.1c-20.1,6.1-40.1,12.1-60.2,18.2
		c-14.3,4.4-20.7,13.1-20.7,28c0,7.5,0.3,15-0.1,22.5c-0.2,3.9-1.5,7.7-2.3,11.5C112,169.1,111.4,169.1,110.8,169.1z"/>
	<path d="M91.8,377.7c-6.8-6.7-12.4-0.6-19.4,2.1c1.1-4.9,1.9-8.7,2.8-12.5c1.8-7.3,1.2-9.1-4.9-13.5
		c-15.4-11.1-27.4-24.7-31.7-43.8c-2.7-12.1-2.3-24.2,1-36c1.1-3.8,4-8.9,7.1-9.8c4.6-1.4,6.2,4.6,8,8C62.5,287,67,302.8,70,319.3
		c2.2,11.8,6.2,23.4,10.2,34.8c1.5,4.2,5,7.7,8.1,11.2C91.2,368.8,93.3,372.2,91.8,377.7z"/>
	<path d="M395.7,128.2c9.2-1.8,20.4-0.1,23.2-13.8c1,2.3,2.2,4.6,2.9,7c2,7.3,6.5,10.9,14,13.1c9,2.6,17.3,7.2,25.9,11
		c1.5,0.7,2.7,1.8,4.4,2.8c1.1-1.6,2-2.9,3.6-5.3c1.7,2.8,3.4,5,4.6,7.5c2.5,5.4,4.4,11.1,7.1,16.4c3.4,6.7,5,13.6,4.7,21.1
		c-0.1,3.4-1.9,4.9-4.8,3.7c-4.5-1.9-9.1-4-13-6.9c-4.7-3.6-9.2-7.2-16.6-7c5.7-3.9,2.6-6.7,0-9.8c-6.9-8.3-13.8-16.6-20.5-25.1
		c-6.1-7.7-14.6-9.9-23.7-10.9c-4-0.4-7.9-1.5-11.9-2.3C395.7,129.3,395.7,128.7,395.7,128.2z"/>
	<path d="M43.2,247.2c4.2-4,7.7-6.8,10.5-10.2c1.7-2.1,3-5.2,2.9-7.9c-0.3-9.8-1.6-19.5-1.9-29.3c-0.1-4-0.8-6.4-6.6-5.8
		c1.8-3.2,2.9-5.7,4.5-7.9c2.7-3.9,5.9-7.5,8.4-11.6c3.8-6.4,8.7-11.2,15.6-14.1c3.6-1.5,6.4-1.1,6.7,3.4c0.3,3.9,0.1,7.9,0.1,11.8
		c0,5.5,0,11,0,16.6c-0.1,0-1.5-0.5-3-1c-2.3,6.7-4.4,13.3-6.9,19.8c-1.6,4-3.3,8.1-5.8,11.5c-6.7,9-7,18.3-3,28.3
		c1.2,3,1.7,6.3,2.1,9.8C60.2,254.4,56.7,243.4,43.2,247.2z"/>
	<path d="M420.1,158.3c3.4-1.4,6.4-2.6,10-4c0.3,1.9,1.1,4.5,0.8,7c-0.8,7.8,1.9,14.3,6.4,20.4c16.7,22.2,20.1,46.9,13.5,73.4
		c-0.3,1.3-0.6,2.6-1.3,3.8c-0.8,1.5-2,2.8-3,4.2c-0.9-1.4-2.3-2.8-2.5-4.3c-1.5-8.7-2.9-17.4-4-26.1c-1.5-10.9-2.6-21.8-4.1-32.7
		c-1.8-13.2-6.4-25.4-13.2-36.9C421.8,161.5,420.9,159.9,420.1,158.3C420,158,420.1,157.6,420.1,158.3z"/>
	<path d="M268.4,67.2c-1.1-3.4-2.1-6.2-3.3-9.9c2.6,0.1,5.8-0.3,8.7,0.5c5.9,1.7,11.3,0.8,17-1.3c19.7-7.4,39.8-9.5,60.1-2.6
		c4.3,1.5,8.4,3.9,12.4,6.3c1.3,0.8,1.8,2.8,2.7,4.3c-1.5,0.5-3,1.4-4.4,1.3c-19.1-0.9-38.2-1.9-57.3-3.1
		c-11.1-0.7-22.3-2.4-32.6,3.7C270.5,67.1,268.9,67.1,268.4,67.2z"/>
	<path d="M56.5,161.9c-0.6-6.8-3.8-7.4-8.6-7.2c2.1-2.1,3.9-4.7,6.3-6.3c5.7-3.6,8.8-8.7,11-14.9c5.3-15.5,13-29.8,26-40.1
		c6.3-5,13.9-8.3,21.1-11.9c1.7-0.8,4.3,0.3,6.4,0.5c-0.9,1.8-1.5,3.8-2.7,5.2c-15.2,16.5-30.8,32.7-45.7,49.5
		c-4.3,4.8-6.8,11.2-10,17C59.1,155.9,58.3,158.1,56.5,161.9z"/>
	<path d="M101.3,231.5c-0.4,2.8-0.5,4.7-1,6.5c-2.2,7.1-3.5,14.4-4.8,21.7c-1.1,6.4-3.1,12.9-3.9,19.5c-0.8,6.8-1.2,13.6-1.7,20.4
		c-0.6,8.1,0.7,15.9,4,23.4c1.4,3.1,2.3,6.5,3.9,10.9c-5.6-2.6-4.9-13.3-14.2-7.1c1-3.8,2.1-6.2,2.1-8.8c0.1-5.6,0-11.2-0.7-16.8
		c-1.1-9.2-2.7-18.4-4.2-27.5c-0.3-1.7-1.4-3.2-2-4.9c-0.3-0.8-0.7-1.9-0.4-2.6c3.1-7.7,5.9-15.5,9.6-23
		C90.5,238,94.7,233.9,101.3,231.5z"/>
	<path d="M175.9,445.4c2.2,2.9,4.3,5.8,6.7,8.9c-2.5,2.5-5.9,2.1-9.8,0.8c-4-1.3-8.2-2.7-12.4-2.9c-19.2-1.1-37.7-16-42.5-34.7
		c-0.3-1.3-0.2-3.8,0.4-4c1.5-0.5,3.6-0.7,5,0c9.7,4.7,18,11.4,25.2,19.3c3.5,3.8,7.1,7.5,11.1,10.8
		C167.1,450.1,168.5,450.1,175.9,445.4z"/>
	<path d="M468.9,217.5c3.8,0.4,6.8,0.7,9.9,1c0.1,0.2,0.3,0.6,0.2,0.7c-4.5,7.1-1.5,12.2,4,17.3c14.2,12.8,14.2,28.7,8.4,44.4
		c-0.5,1.3-2.2,2.8-3.4,2.9c-1,0-2.7-1.8-3.1-3c-1.6-5.2-3.2-10.5-4-15.9c-2.1-15-4.6-29.9-11.5-43.6
		C469,220.2,469.1,218.8,468.9,217.5z"/>
	<path d="M446.8,98.6c3.6,8.2,7.6,17.6,12,27.8c-11.2,1.4-14.1-9.8-20.8-11.4c-1.1-2.9-1.4-5.3-2.8-6.7
		c-5.4-5.3-10.7-11.1-17.1-15.1c-4.4-2.7-10.4-2.8-15.7-4.1c-2.1-0.5-4.3-1.1-6.4-2.1c4.1-1.8,10.1,0,10.5-7.8
		c4.1,8.3,11,9.3,18.6,10.4c5.3,0.7,10.2,4.4,15.3,6.7C442,97,443.8,97.5,446.8,98.6z"/>
	<path d="M130.2,164.2c-3.3-2.7-5.7-4.5-8.7-6.9c1.1-0.8,2.3-2.3,3.8-2.6c5.3-1,7.6-4.6,9.5-9.1c5.3-12.4,13.9-21.5,27.3-24.8
		c3.6-0.9,7.6,0.1,11.4,0.2c-1.7,3-2.9,6.5-5.3,8.8c-4.6,4.4-9.9,8.2-15,12.1c-1.8,1.4-4.1,2.2-6,3.5
		C139.8,150.1,131,153.3,130.2,164.2z"/>
	<path d="M350.3,131.6c0.9-3.9,1.6-6.9,2.4-10.4c1.3,0.7,3.2,1.2,4.1,2.4c3.1,4.2,7.2,4.5,11.9,4.3c12.2-0.7,23.4,2,32.7,10.6
		c1.7,1.6,3.5,3.2,4.6,5.2c1.2,2.3,1.6,5,2.4,7.5c-2.5,0-5.3,0.8-7.4-0.1c-7.8-3.1-15.4-6.8-23-10.4c-2.1-1-3.9-2.6-5.8-3.8
		C365.5,132.8,358.8,128.7,350.3,131.6z"/>
	<path d="M461.4,312.1c3.7,2.8,4.8,7.9,12.3,5.7c-5.6,6.4-6.8,12.4-4.7,19c1.8,5.8-1.7,12.4,2.8,18.6c-3.8,5.8-7.9,12.2-12.3,18.4
		c-0.7,1-2.4,1.4-3.6,2.1c-0.7-1.2-1.9-2.5-1.9-3.7c0.2-7-0.5-13.9,2.8-20.7c3.2-6.5,5.4-13.6,7-20.7c0.9-3.8-0.3-8.1-0.8-12.2
		C462.7,316.5,461.9,314.3,461.4,312.1z"/>
	<path d="M70.6,393.2c-1.5,1.9-3.4,4.5-5.4,7c0.4,0.5,0.7,0.9,1.1,1.4c-0.5-0.8-1.4-1.6-1.4-2.4c0-6.9-4.8-8.5-10.2-10
		c-11.5-3.3-20.1-10.1-24.6-21.5c-0.7-1.8-0.1-4-0.2-6c1.9,0.1,3.9-0.3,5.6,0.2c7.8,2.6,14,7.3,19.1,13.8
		C60.1,382.8,63.9,391.5,70.6,393.2z"/>
	<path d="M30.9,245.8c-3.7-1.8-7.2-3.5-11-5.2c2.9-3.9,4.6-9.1,3.5-15.4c-0.9-5.4-0.2-11-0.2-18.4c2.8-3.2,7-8.1,11.4-12.8
		c0.9-0.9,2.6-1.1,3.9-1.6c0.5,1.5,1.2,2.9,1.5,4.4c2.1,10.7-4.6,18.8-9.2,27.1c-3.9,7-5,13.1-0.4,19.9
		C31,244.4,30.8,245.4,30.9,245.8z"/>
	<path d="M209.9,469.6c0.4,2.3,0.7,4.4,1.2,7.7c-6.6-4.7-12.6-1.5-18.7-0.3c-8.8,1.7-16.8-0.5-23.7-6.3c-1.1-0.9-1.3-2.7-2-4.1
		c1.3-0.5,2.7-1.6,3.9-1.4c7.5,1.1,15.1,2.1,22.4,4C198.7,470.7,204.1,472.3,209.9,469.6z"/>
	<path d="M120.6,441.4c-1.7,2.8-3.3,5.6-5,8.4c-6.4-6.3-15.1-3.1-23.9-6.7c-1.1-2-3.4-5.8-5.1-9.9c-2-4.8,0-7.3,5.1-6.1
		c2.9,0.7,5.7,2.5,8.2,4.2c1.7,1.2,3,3.1,4.4,4.7C108.6,441.1,112.9,446.4,120.6,441.4z"/>
	<path d="M233.8,479c-3,0-4.7-1.5-4.8-4.8c-0.1-3.3,1.8-4.9,4.9-4.9c3.1,0,5.1,1.6,5,4.8C238.9,477.2,237.2,479,233.8,479z"/>
	<path d="M103,210.8c-4.4-1-6.1-2.6-6.1-5.8c0-3.3,1.9-4.9,5-4.9c3.1,0.1,5.4,1.9,4.8,5C106.4,207.2,104.3,208.9,103,210.8z"/>
	<path d="M468,275.2c0,3.8-2,5.3-5,5.3c-3.1,0-5-1.6-5-4.9c0.1-3.2,1.8-4.8,5.1-4.8C466.4,270.9,468,272.5,468,275.2z"/>
	<path d="M483.9,308.3c-1.4,0.9-3,2.6-4.3,2.4c-1.4-0.2-3.1-2.2-3.4-3.6c-0.2-0.8,2-3,3.2-3.1c1.4-0.1,2.9,1.5,4.4,2.4
		C483.9,307,483.9,307.7,483.9,308.3z"/>
	<path d="M35,335.3c-1.5,0.9-3.1,2.7-4.3,2.4c-1.4-0.3-3.1-2.2-3.3-3.7c-0.2-0.9,2.1-3,3.3-3.1c1.4-0.1,2.9,1.6,4.3,2.5
		C35,334,35,334.6,35,335.3z"/>
</g>
</svg>
